<?xml version="1.0" standalone="no"?>
<!DOCTYPE svg PUBLIC "-//W3C//DTD SVG 20010904//EN"
 "http://www.w3.org/TR/2001/REC-SVG-20010904/DTD/svg10.dtd">
<svg version="1.0" xmlns="http://www.w3.org/2000/svg"
 width="500.000000pt" height="500.000000pt" viewBox="0 0 500.000000 500.000000"
 preserveAspectRatio="xMidYMid meet">
<metadata>
Created by potrace 1.11, written by Peter Selinger 2001-2013
</metadata>
<g transform="translate(0.000000,500.000000) scale(0.100000,-0.100000)"
fill="#000000" stroke="none">
<path d="M2186 4984 c-1049 -135 -1900 -912 -2130 -1944 -75 -341 -75 -739 0
-1080 212 -952 952 -1692 1904 -1904 341 -75 739 -75 1080 0 952 212 1692 952
1904 1904 75 341 75 739 0 1080 -105 470 -334 887 -675 1229 -400 399 -907
646 -1469 716 -154 19 -463 18 -614 -1z m449 -194 c336 -22 609 -96 906 -246
724 -366 1197 -1088 1248 -1902 73 -1164 -740 -2198 -1890 -2402 -1244 -220
-2438 615 -2659 1861 -44 246 -44 552 0 798 184 1038 1059 1824 2104 1890 67
5 126 9 131 9 6 1 77 -3 160 -8z"/>
<path d="M2428 3973 c-100 -84 -1559 -1361 -1591 -1394 -31 -32 -37 -45 -37
-79 0 -33 6 -48 29 -71 l29 -29 171 0 171 0 0 -571 0 -571 29 -29 29 -29 442
0 442 0 29 29 29 29 0 471 0 471 300 0 300 0 0 -471 0 -471 29 -29 29 -29 442
0 442 0 29 29 29 29 0 571 0 571 171 0 171 0 29 29 c23 23 29 38 29 71 0 34
-6 47 -37 79 -32 33 -1491 1310 -1591 1394 -24 19 -45 27 -72 27 -27 0 -48 -8
-72 -27z m738 -793 l657 -575 -87 -5 c-81 -5 -90 -7 -112 -33 l-24 -28 0 -570
0 -569 -300 0 -300 0 0 471 0 471 -29 29 -29 29 -442 0 -442 0 -29 -29 -29
-29 0 -471 0 -471 -300 0 -300 0 0 569 0 570 -24 28 c-22 26 -31 28 -112 33
l-87 5 659 577 c362 318 662 576 666 575 4 -1 302 -261 664 -577z"/>
</g>
</svg>
